<?xml version="1.0" encoding="utf-8"?>
<!-- Generator: Adobe Illustrator 24.0.0, SVG Export Plug-In . SVG Version: 6.00 Build 0)  -->
<svg version="1.1" id="Ebene_1" xmlns="http://www.w3.org/2000/svg" xmlns:xlink="http://www.w3.org/1999/xlink" x="0px" y="0px"
	 viewBox="0 0 68 100" style="enable-background:new 0 0 68 100;" xml:space="preserve">
<path d="M34.1,0C15.7,0,0.6,15,0.6,33.4C0.6,51.2,31,97.1,32.3,99c0.4,0.6,1.1,1,1.8,1c0.7,0,1.4-0.4,1.8-1
	c1.3-1.9,31.6-47.9,31.6-65.6C67.5,15,52.5,0,34.1,0z M34.1,93.8C27.5,83.5,5,47.5,5,33.4c0-16,13-29.1,29.1-29.1s29.1,13,29.1,29.1
	C63.2,47.5,40.7,83.5,34.1,93.8z"/>
<path d="M45.6,14.7c-3.6,0-6.6,2.7-7.2,6.2H19.6c-1.1,0-2.1,0.9-2.1,2.1v1.2c0,0.6,0.2,1.1,0.6,1.5l12.4,12.4
	c0.1,0.1,0.3,0.2,0.4,0.3v11.6h-8.3c-0.6,0-1,0.5-1,1s0.5,1,1,1h18.7c0.6,0,1-0.5,1-1s-0.5-1-1-1h-8.3V38.4c0.2-0.1,0.3-0.2,0.4-0.3
	l9.4-9.4c3.7,1.4,7.9-0.4,9.4-4.1c1.4-3.7-0.4-7.9-4.1-9.4C47.3,14.8,46.5,14.7,45.6,14.7z M32.1,36.6l-7.4-7.4h14.9L32.1,36.6z
	 M41.6,27.1h-19l-2.9-2.9V23h24.9v1.2L41.6,27.1z M45.6,27.1c-0.3,0-0.6,0-0.9-0.1l1.4-1.4c0.4-0.4,0.6-0.9,0.6-1.5V23
	c0-1.1-0.9-2.1-2.1-2.1h-4c0.6-2.8,3.3-4.6,6.1-4c2.8,0.6,4.6,3.3,4,6.1C50.1,25.4,48,27.1,45.6,27.1z"/>
</svg>
