<?xml version="1.0" encoding="utf-8"?>
<!-- Generator: Adobe Illustrator 24.0.0, SVG Export Plug-In . SVG Version: 6.00 Build 0)  -->
<svg version="1.1" id="Ebene_1" xmlns="http://www.w3.org/2000/svg" xmlns:xlink="http://www.w3.org/1999/xlink" x="0px" y="0px"
	 viewBox="0 0 68 100" style="enable-background:new 0 0 68 100;" xml:space="preserve">
<path d="M34.1,0C15.7,0,0.6,15,0.6,33.4C0.6,51.2,31,97.1,32.3,99c0.4,0.6,1.1,1,1.8,1c0.7,0,1.4-0.4,1.8-1
	c1.3-1.9,31.6-47.9,31.6-65.6C67.5,15,52.5,0,34.1,0z M34.1,93.8C27.5,83.5,5,47.5,5,33.4c0-16,13-29.1,29.1-29.1s29.1,13,29.1,29.1
	C63.2,47.5,40.7,83.5,34.1,93.8z"/>
<g>
	<path d="M49.8,25.5c-1.2-0.2-2.4-0.1-3.5,0.2L45.1,23c0,0,0,0,0,0l2.3-3.3c0.2-0.3,0.2-0.6,0.1-0.9c-0.1-0.3-0.4-0.5-0.7-0.6
		l-4.3-0.7c-0.5-0.1-1,0.3-1.1,0.8c-0.1,0.5,0.3,1,0.8,1.1l2.7,0.4l-1.2,1.7L33.9,20c0-0.1-0.1-0.1-0.1-0.2l1.4-2
		c0.2-0.3,0.2-0.6,0.1-0.9c-0.1-0.3-0.4-0.5-0.7-0.6l-5.1-0.8c-0.5-0.1-1,0.3-1.1,0.8c-0.1,0.5,0.3,1,0.8,1.1l3.6,0.6l-3.2,4.7
		c-0.8-0.4-1.6-0.7-2.5-0.9c-3.7-0.6-7.2,1.5-8.6,4.7c-2.4,0.6-4.2,2.8-4.2,5.4v7.9c0,0,0,0,0,0h-3c-0.5,0-1,0.4-1,1
		c0,0.5,0.4,1,1,1h17.2c0.5,0,1-0.4,1-1c0-0.5-0.4-1-1-1h-3.1c0,0,0,0,0,0v-2.1c4,0.2,7.7-2.6,8.3-6.7c0.5-2.8-0.6-5.5-2.6-7.3
		l1.5-2.2c0,0,0,0,0,0l4.2,10.2c0.1,0.3,0.4,0.5,0.7,0.6l3,0.5c-0.3,4.1,2.6,7.8,6.7,8.5c4.3,0.7,8.5-2.3,9.2-6.7
		C57.1,30.3,54.1,26.2,49.8,25.5z M19.7,28.6c1.8,0,3.3,1.5,3.3,3.3v3.4c-2.4-1.1-3.9-3.8-3.5-6.6c0-0.1,0-0.1,0-0.2
		C19.6,28.6,19.7,28.6,19.7,28.6z M16.4,39.9C16.4,39.9,16.4,39.9,16.4,39.9l0-7.9c0-1.1,0.5-2,1.3-2.6c-0.2,3.6,2,6.8,5.3,8v2.6
		c0,0,0,0,0,0C23,39.9,16.4,39.9,16.4,39.9z M31.8,30.8c-0.5,3.2-3.4,5.4-6.6,5.1v-4c0-2.8-2.1-5.1-4.8-5.5c1.3-2.1,3.7-3.3,6.2-2.9
		c0.6,0.1,1.2,0.3,1.7,0.6L25,29.1c-0.3,0.4-0.2,1,0.2,1.3c0.2,0.1,0.4,0.2,0.5,0.2c0.3,0,0.6-0.1,0.8-0.4l3.4-4.9
		C31.4,26.7,32.2,28.7,31.8,30.8z M44.5,26.5c-1.7,1-3,2.6-3.6,4.5l-1.4-0.2l4.3-6L44.5,26.5z M46.9,31.9l-4.3-0.6
		c0.5-1.3,1.4-2.4,2.6-3.1L46.9,31.9z M34.8,22.1l7.7,1.2l-4.5,6.3L34.8,22.1z M54.6,34.4c-0.6,3.4-3.7,5.7-7.1,5.2
		c-3.1-0.5-5.3-3.3-5.2-6.4l6.1,0.9c0,0,0.1,0,0.1,0c0.3,0,0.6-0.1,0.8-0.4c0.2-0.3,0.3-0.7,0.1-1L47,27.4c0.8-0.2,1.6-0.2,2.5-0.1
		C52.9,27.8,55.2,31,54.6,34.4z"/>
</g>
</svg>
