<?xml version="1.0" encoding="utf-8"?>
<!-- Generator: Adobe Illustrator 24.0.0, SVG Export Plug-In . SVG Version: 6.00 Build 0)  -->
<svg version="1.1" id="Ebene_1" xmlns="http://www.w3.org/2000/svg" xmlns:xlink="http://www.w3.org/1999/xlink" x="0px" y="0px"
	 viewBox="0 0 68 100" style="enable-background:new 0 0 68 100;" xml:space="preserve">
<path d="M28.3,11c-0.5,0-0.9,0.5-0.9,1c0,0.2,0.1,0.3,0.1,0.5c1,1.6,1.3,2.7,1.3,3.3c0,0.8-0.3,1.3-0.8,2s-1.1,1.8-1.1,3.2
	c0,0.9,0.4,2,1.1,3c0.3,0.4,0.9,0.5,1.3,0.2c0.4-0.3,0.5-0.9,0.2-1.3c-0.6-0.7-0.8-1.4-0.8-1.8c0-0.9,0.3-1.5,0.8-2.2
	c0.5-0.7,1.1-1.7,1.1-3.1c0-1.2-0.5-2.6-1.6-4.3C29,11.1,28.6,10.9,28.3,11z M35.4,11c-0.5,0-0.9,0.5-0.9,1c0,0.2,0.1,0.3,0.1,0.5
	c1,1.6,1.3,2.7,1.3,3.3c0,0.8-0.3,1.3-0.8,2s-1.1,1.8-1.1,3.2c0,0.9,0.4,2,1.1,3c0.3,0.4,0.9,0.5,1.3,0.2c0.4-0.3,0.5-0.9,0.2-1.3
	C36.2,22.1,36,21.4,36,21c0-0.9,0.3-1.5,0.8-2.2c0.5-0.7,1.1-1.7,1.1-3.1c0-1.2-0.5-2.6-1.6-4.3C36.1,11.1,35.8,10.9,35.4,11z
	 M42.6,11c-0.5,0-0.9,0.5-0.9,1c0,0.2,0.1,0.3,0.1,0.5c1,1.6,1.3,2.7,1.3,3.3c0,0.8-0.3,1.3-0.8,2s-1.1,1.8-1.1,3.2
	c0,0.9,0.4,2,1.1,3c0.3,0.4,0.9,0.5,1.3,0.2c0.4-0.3,0.5-0.9,0.2-1.3c-0.6-0.7-0.8-1.4-0.8-1.8c0-0.9,0.3-1.5,0.8-2.2
	c0.5-0.7,1.1-1.7,1.1-3.1c0-1.2-0.5-2.6-1.6-4.3C43.3,11.1,43,10.9,42.6,11z M22,26.3c-0.5,0-0.9,0.5-0.9,1v1.9h-1
	c-3.7,0-6.7,3-6.7,6.7c0,3.7,3,6.7,6.7,6.7h3.4c2.6,4,7.2,6.7,12.3,6.7c8.2,0,14.8-6.7,14.8-15v-7c0-0.5-0.4-1-1-1H22
	C22.1,26.3,22.1,26.3,22,26.3z M23.1,28.2h25.8v6c0,0.2,0,0.3,0,0.5c-1.8-1.4-3.8-2.2-5.7-2.2c-5.2,0-9.5,2.9-14.3,2.9
	c-1.8,0-3.7-0.4-5.7-1.5V28.2z M20.2,31h1v3.2c0,2.3,0.5,4.4,1.4,6.4h-2.4c-2.7,0-4.8-2.1-4.8-4.8C15.4,33.1,17.5,31,20.2,31z
	 M43.1,34.4c1.7,0,3.5,0.8,5.4,2.6c-1.2,5.9-6.4,10.3-12.6,10.3c-6.6,0-11.9-4.9-12.8-11.3c1.9,0.9,3.8,1.2,5.6,1.3
	C34.4,37.3,38.7,34.4,43.1,34.4z M22.5,51.1c-0.5,0-0.9,0.5-0.9,1c0,0.5,0.5,0.9,1,0.9h26.7c0.5,0,1-0.4,1-0.9c0-0.5-0.4-1-0.9-1
	c0,0,0,0,0,0H22.5C22.6,51.1,22.5,51.1,22.5,51.1z"/>
<path d="M34.1,0C15.7,0,0.6,15,0.6,33.4C0.6,51.2,31,97.1,32.3,99c0.4,0.6,1.1,1,1.8,1c0.7,0,1.4-0.4,1.8-1
	c1.3-1.9,31.6-47.9,31.6-65.6C67.5,15,52.5,0,34.1,0z M34.1,93.8C27.5,83.5,5,47.5,5,33.4c0-16,13-29.1,29.1-29.1s29.1,13,29.1,29.1
	C63.2,47.5,40.7,83.5,34.1,93.8z"/>
</svg>
