<?xml version="1.0" encoding="utf-8"?>
<!-- Generator: Adobe Illustrator 24.0.0, SVG Export Plug-In . SVG Version: 6.00 Build 0)  -->
<svg version="1.1" id="Ebene_1" xmlns="http://www.w3.org/2000/svg" xmlns:xlink="http://www.w3.org/1999/xlink" x="0px" y="0px"
	 viewBox="0 0 68 100" style="enable-background:new 0 0 68 100;" xml:space="preserve">
<path d="M34.1,0C15.7,0,0.6,15,0.6,33.4C0.6,51.2,31,97.1,32.3,99c0.4,0.6,1.1,1,1.8,1s1.4-0.4,1.8-1c1.3-1.9,31.6-47.9,31.6-65.6
	C67.5,15,52.5,0,34.1,0z M34.1,93.8C27.5,83.5,5,47.5,5,33.4c0-16,13-29.1,29.1-29.1s29.1,13,29.1,29.1
	C63.2,47.5,40.7,83.5,34.1,93.8z"/>
<path d="M39,52.2c-0.5,0-1-0.4-1-1v-3.8c-1.3-0.1-2.6-0.1-3.9-0.1c-2,0-4.1,0.1-6.1,0.2v3.6c0,0.5-0.4,1-1,1c-0.5,0-1-0.4-1-1v-3.4
	c-3.7,0.4-7.5,1-11.1,1.9c-0.1,0-0.2,0-0.2,0c-0.5,0-0.8-0.3-1-0.8c-0.1-0.5,0.2-1.1,0.7-1.2c3.8-0.9,7.7-1.6,11.6-2v-5.1
	c-4.4-0.5-7.8-4.2-7.8-8.6c0-4.8,3.9-8.7,8.8-8.7c1.1,0,2.2,0.2,3.3,0.6c0.2-0.4,0.5-0.8,0.8-1.1c-0.2-0.8-0.3-1.6-0.3-2.4
	c0-4.5,3.7-8.2,8.2-8.2s8.2,3.7,8.2,8.2c0,0.8-0.1,1.6-0.3,2.3c1.5,1.8,2.4,4.2,2.4,6.6c0,5.3-4,9.7-9.3,10.2v6
	c8,0.6,12.9,2.2,13,2.2c0.5,0.2,0.8,0.7,0.6,1.2c-0.1,0.4-0.5,0.7-0.9,0.7c-0.1,0-0.2,0-0.3,0c0,0-4.7-1.5-12.4-2.1V51
	C40,51.8,39.6,52.2,39,52.2z M28,45.6c2-0.2,4.1-0.2,6.1-0.2c1.3,0,2.6,0,3.9,0.1v-5.9c-1.7-0.2-3.2-0.7-4.6-1.6
	c-1.4,1.5-3.3,2.4-5.4,2.7V45.6z M28,38.7c3.3-0.5,5.8-3.3,5.8-6.7c0-3.7-3-6.7-6.8-6.7s-6.8,3-6.8,6.7c0,3.4,2.5,6.2,5.8,6.7v-1.8
	l-2.1-2.1c-0.4-0.4-0.4-1,0-1.4c0.2-0.2,0.4-0.3,0.7-0.3s0.5,0.1,0.7,0.3l0.7,0.7v-1.5c0-0.5,0.4-1,1-1c0.5,0,1,0.4,1,1V34l0.7-0.7
	c0.2-0.2,0.4-0.3,0.7-0.3s0.5,0.1,0.7,0.3c0.4,0.4,0.4,1,0,1.4L28,36.8C28,36.8,28,38.7,28,38.7z M34.6,36.4c1,0.7,2.2,1.1,3.4,1.2
	V36l-2.1-2.1c-0.1-0.1-0.2-0.2-0.2-0.4C35.5,34.5,35.2,35.5,34.6,36.4z M40,37.6c4.1-0.5,7.3-4,7.3-8.2c0-2.1-0.8-4.1-2.2-5.7
	c-0.3-0.3-0.3-0.7-0.2-1c0.3-0.7,0.4-1.5,0.4-2.2c0-3.5-2.8-6.3-6.3-6.3s-6.3,2.8-6.3,6.3c0,0.8,0.1,1.5,0.4,2.2
	c0.1,0.4,0.1,0.7-0.2,1c-0.3,0.4-0.6,0.7-0.9,1.2c2.3,1.6,3.7,4.3,3.7,7.1c0,0.2,0,0.4,0,0.6c0-0.1,0.1-0.1,0.1-0.2
	c0.2-0.2,0.4-0.3,0.7-0.3s0.5,0.1,0.7,0.3l0.7,0.7v-1.5l-2.1-2.1c-0.4-0.4-0.4-1,0-1.4c0.2-0.2,0.4-0.3,0.7-0.3s0.5,0.1,0.7,0.3
	l0.7,0.7v-1.5c0-0.5,0.4-1,1-1s1,0.4,1,1v1.5l0.7-0.7c0.2-0.2,0.4-0.3,0.7-0.3s0.5,0.1,0.7,0.3c0.2,0.2,0.3,0.4,0.3,0.7
	s-0.1,0.5-0.3,0.7l-2.1,2.1v1.5l0.7-0.7c0.2-0.2,0.4-0.3,0.7-0.3s0.5,0.1,0.7,0.3c0.4,0.4,0.4,1,0,1.4L40,36V37.6z"/>
</svg>
