<?xml version="1.0" encoding="utf-8"?>
<!-- Generator: Adobe Illustrator 24.0.0, SVG Export Plug-In . SVG Version: 6.00 Build 0)  -->
<svg version="1.1" id="Ebene_1" xmlns="http://www.w3.org/2000/svg" xmlns:xlink="http://www.w3.org/1999/xlink" x="0px" y="0px"
	 viewBox="0 0 68 100" style="enable-background:new 0 0 68 100;" xml:space="preserve">
<path d="M34.1,0C15.7,0,0.6,15,0.6,33.4C0.6,51.2,31,97.1,32.3,99c0.4,0.6,1.1,1,1.8,1c0.7,0,1.4-0.4,1.8-1
	c1.3-1.9,31.6-47.9,31.6-65.6C67.5,15,52.5,0,34.1,0z M34.1,93.8C27.5,83.5,5,47.5,5,33.4c0-16,13-29.1,29.1-29.1s29.1,13,29.1,29.1
	C63.2,47.5,40.7,83.5,34.1,93.8z"/>
<path d="M37.6,18.6c0.7,0,1.2-0.6,1.2-1.2c0-1.2-0.7-1.8-1.1-2.2c-0.1-0.1-0.3-0.2-0.3-0.3c0-0.1,0.2-0.3,0.3-0.4
	c0.4-0.4,1.1-1,1.1-2.2c0-1.2-0.7-1.8-1.1-2.2c-0.1-0.1-0.3-0.2-0.3-0.3c0-0.7-0.6-1.3-1.2-1.3c-0.7,0-1.2,0.6-1.2,1.2
	c0,1.2,0.7,1.8,1.1,2.2c0.1,0.1,0.3,0.2,0.3,0.3c0,0.1-0.2,0.3-0.3,0.4c-0.4,0.4-1.1,1-1.1,2.2c0,1.2,0.7,1.8,1.1,2.2
	c0.1,0.1,0.3,0.2,0.3,0.3C36.4,18,37,18.6,37.6,18.6z"/>
<path d="M31.8,18.6c0.7,0,1.2-0.6,1.2-1.2c0-1.2-0.7-1.8-1.1-2.2c-0.1-0.1-0.3-0.2-0.3-0.3c0-0.1,0.2-0.3,0.3-0.4
	c0.4-0.4,1.1-1,1.1-2.2c0-1.2-0.7-1.8-1.1-2.2c-0.1-0.1-0.3-0.2-0.3-0.3c0-0.7-0.6-1.3-1.2-1.3c-0.7,0-1.2,0.6-1.2,1.2
	c0,1.2,0.7,1.8,1.1,2.2c0.1,0.1,0.3,0.2,0.3,0.3c0,0.1-0.2,0.3-0.3,0.4c-0.4,0.4-1.1,1-1.1,2.2c0,1.2,0.7,1.8,1.1,2.2
	c0.1,0.1,0.3,0.2,0.3,0.3C30.6,18,31.1,18.6,31.8,18.6z"/>
<path d="M48.8,41.8c-0.6,0-1-0.4-1.2-0.9c-1.3-4.6-5.1-8.1-9.8-9c-0.7-0.1-1.1-0.8-1-1.4c0.1-0.6,0.6-1,1.2-1c0.1,0,0.2,0,0.2,0
	c5.6,1,10.2,5.2,11.7,10.7c0.2,0.7-0.2,1.3-0.9,1.5C49,41.8,48.9,41.8,48.8,41.8z"/>
<path d="M49.3,40.4c-1.4-5.2-5.8-9.3-11.1-10.2c-0.3-0.1-0.6,0.1-0.6,0.4c-0.1,0.3,0.1,0.6,0.4,0.6c4.9,0.9,9,4.6,10.3,9.5
	c0.1,0.2,0.3,0.4,0.5,0.4c0,0,0.1,0,0.1,0C49.3,41,49.4,40.7,49.3,40.4z"/>
<path d="M13.5,52.7c-0.7,0-1.2-0.6-1.2-1.2v-4.2c0-0.7,0.6-1.2,1.2-1.2h0.1v-0.5c0-10.4,7.7-19.2,17.9-20.5c-0.4-0.6-0.6-1.3-0.6-2
	c0-1.9,1.6-3.5,3.5-3.5c1.9,0,3.5,1.6,3.5,3.5c0,0.7-0.2,1.4-0.6,2c10.2,1.4,17.9,10.1,17.9,20.5V46h0.1c0.7,0,1.2,0.6,1.2,1.2v4.2
	c0,0.7-0.6,1.2-1.2,1.2H13.5z M53.9,50.2v-1.7H14.7v1.7H53.9z M52.6,46v-0.5c0-10.1-8.2-18.3-18.3-18.3c-10.1,0-18.3,8.2-18.3,18.3
	V46H52.6z M34.3,22c-0.5,0-1,0.4-1,1c0,0.5,0.4,1,1,1s1-0.4,1-1C35.3,22.5,34.9,22,34.3,22z"/>
<path d="M55.2,46.7h-0.8v-1.2c0-10.7-8.4-19.4-18.9-20c1-0.4,1.7-1.4,1.7-2.5c0-1.5-1.2-2.8-2.8-2.8c-1.5,0-2.8,1.2-2.8,2.8
	c0,1.1,0.7,2.1,1.7,2.5c-10.5,0.6-18.9,9.3-18.9,20v1.2h-0.8c-0.3,0-0.5,0.2-0.5,0.5v4.2c0,0.3,0.2,0.5,0.5,0.5h41.6
	c0.3,0,0.5-0.2,0.5-0.5v-4.2C55.7,47,55.5,46.7,55.2,46.7z M32.6,23c0-0.9,0.8-1.7,1.7-1.7c0.9,0,1.7,0.8,1.7,1.7
	c0,0.9-0.8,1.7-1.7,1.7C33.4,24.7,32.6,23.9,32.6,23z M15.4,45.5c0-10.5,8.5-19,19-19s19,8.5,19,19v1.2H15.4V45.5z M54.6,50.9H14
	v-3.1h40.6V50.9z"/>
</svg>
